<svg xmlns="http://www.w3.org/2000/svg" viewBox="0 0 1575.3 280.3" xmlns:svg="http://www.w3.org/2000/svg" xmlns:rdf="http://www.w3.org/1999/02/22-rdf-syntax-ns#" xmlns:cc="http://creativecommons.org/ns#" xmlns:dc="http://purl.org/dc/elements/1.1/"><path fill="#c7000b" fill-rule="evenodd" d="M300.9 102.4C280.6 61.2 254 3.6 179.6.1a114.5 114.5 0 0 0-92.2 40.6 112.3 112.3 0 0 0-23.6 44 100 100 0 0 1 121.4 36.1c26.4 38.8 66.4 100.4 87.8 132.3 17.5 26.2 46 31.3 62 24.2 19.9-8.8 32.1-29.5 18.9-58.4-14.6-32.1-44.4-98.7-53.2-116.6Zm152 75.7a115.3 115.3 0 0 0-69.3-94.4c-29.9-12.5-62.8-10.5-76-9.5L389 252.9c9.8 21.6 28.5 18.6 35.6 11.7 16.5-15.9 32.1-49.7 28.4-86.5ZM132.2 95.5a110.3 110.3 0 0 0-108.4 36.1C-3.8 165.1-2.1 192.4 3 214.5a81.8 81.8 0 0 0 36.4 53.7c15.3 10.2 34.7 14.7 48.3 9.5 6.1-2.3 12.4-6.9 18.2-20.3l52.3-120.2c3.3-7.6 4.8-15.1 2.3-22-3.5-9.6-10.5-15.6-28.2-19.8Z"/><path d="M563.7 193.4H547l.9-9.1h43.5l-.9 9.1h-15.9v45.2h-10.9v-45.2Zm68.5 7.7c2.3 2.6 3.4 6.3 3.4 11.2v26.2h-10.7v-25.4c0-2.6-.5-4.5-1.5-5.7-1-1.2-2.5-1.8-4.5-1.8s-3.5.4-5.1 1.2a19 19 0 0 0-4.5 3.4v28.2h-10.8v-54.7l10.7-.8v20.9c1.8-2 3.7-3.6 5.9-4.9 2.2-1.3 4.7-1.9 7.5-1.9s7.1 1.3 9.4 3.9Zm48.5 19h-26.1c.3 3.9 1.5 6.7 3.4 8.5s4.6 2.6 8 2.6 3.8-.2 5.9-.7 4-1.1 5.8-1.8l2.3 7.3c-4.7 2.2-10 3.4-15.8 3.4s-11.8-1.8-15.3-5.3-5.2-8.6-5.2-15.1.8-8.4 2.4-11.6c1.6-3.3 3.9-5.8 6.8-7.5s6.3-2.6 10.1-2.6 7.3.9 9.9 2.8a16 16 0 0 1 5.9 7.4c1.3 3.1 1.9 6.5 1.9 10.3v2.4Zm-10.4-6.6c-.2-2.9-.9-5.1-2.2-6.5-1.3-1.5-3.1-2.2-5.3-2.2s-3.9.7-5.3 2.2-2.3 3.6-2.8 6.6h15.5Zm76.7 11.3h-20.8l-4.9 13.8h-11l21-54.3H742l21.5 54.3h-11.7l-5-13.8Zm-17.8-8.4h14.7l-5.2-14.4c-.8-2-1.5-4.3-2.2-6.9l-2.1 6.9-5.2 14.4Zm41-32.1h10.9v54.3h-10.9v-54.3Zm47.1 0h15.2c7.1 0 12.5 1.4 16.3 4.3 3.8 2.9 5.7 7 5.7 12.4s-.8 6.7-2.5 9.4-3.9 4.7-6.8 6.1c-2.9 1.4-6.3 2.1-10 2.1s-4.5-.2-6.9-.7v20.6h-10.9v-54.3Zm23.6 23.8c1.8-1.6 2.6-3.9 2.6-7s-.9-5.4-2.8-6.7c-1.9-1.4-4.6-2-8.3-2h-4.2V210c1.9.3 3.5.5 4.8.5 3.5 0 6-.8 7.8-2.4Zm23.9-13.8a6.3 6.3 0 0 1-2.2-2.1c-.5-.9-.8-1.9-.8-3.1a5.8 5.8 0 0 1 6.1-6c1.8 0 2.2.3 3.1.8.9.5 1.7 1.2 2.2 2.1a6.2 6.2 0 0 1 0 6.1c-.5.9-1.3 1.6-2.2 2.1-1 .5-2 .8-3.1.8s-2.2-.3-3.2-.8Zm-2.3 3.7h10.8v40.5h-10.8V198Zm29.1 39c-3-1.6-5.3-3.9-7-6.9-1.7-3.1-2.5-6.8-2.5-11.2s.8-8.3 2.5-11.6 4.1-5.7 7.1-7.4 6.5-2.6 10.5-2.6 7.3.8 10.2 2.5c3 1.7 5.3 4.1 6.9 7.3 1.7 3.2 2.5 7 2.5 11.3s-.9 8.2-2.6 11.4a17.3 17.3 0 0 1-7.1 7.1c-3 1.6-6.5 2.4-10.4 2.4s-7.1-.8-10.1-2.3Zm19.1-18.2c0-4.3-.7-7.7-2.2-10-1.5-2.4-3.7-3.5-6.6-3.5s-5.2 1.2-6.7 3.6-2.2 5.6-2.2 9.8.8 7.1 2.4 9.3a8 8 0 0 0 6.9 3.3c5.6 0 8.5-4.1 8.5-12.4Zm19.6-10.5c0-3.8 0-7.2-.3-10.3h10.2l.4 3.1.3 3.2c1.3-1.4 2.5-2.6 3.7-3.6a14.5 14.5 0 0 1 9.9-3.5c2.1 0 4.9.6 6.8 1.7s3.4 2.9 4.4 5.2 1.5 5.1 1.5 8.4v26h-10.7v-25.2c0-2.6-.5-4.5-1.5-5.8-1-1.2-2.5-1.9-4.4-1.9s-3.5.4-5 1.4a21 21 0 0 0-4.5 3.7v27.8h-10.8v-30.3Zm82 11.8h-26.1c.3 3.9 1.5 6.7 3.4 8.5s4.6 2.6 8 2.6 3.8-.2 5.9-.7 4-1.1 5.8-1.8l2.3 7.3c-4.7 2.2-10 3.4-15.8 3.4s-11.8-1.8-15.3-5.3-5.2-8.6-5.2-15.1.8-8.4 2.4-11.6c1.6-3.3 3.9-5.8 6.8-7.5s6.3-2.6 10.1-2.6 7.3.9 9.9 2.8a16 16 0 0 1 5.9 7.4c1.3 3.1 1.9 6.5 1.9 10.3v2.4Zm-10.4-6.6c-.2-2.9-.9-5.1-2.2-6.5-1.3-1.5-3.1-2.2-5.3-2.2s-3.9.7-5.3 2.2-2.3 3.6-2.8 6.6h15.5Zm54.4 6.6h-26.1c.3 3.9 1.4 6.7 3.4 8.5 1.9 1.8 4.6 2.6 8 2.6s3.8-.2 5.9-.7 3.9-1.1 5.8-1.8l2.3 7.3c-4.8 2.2-10 3.4-15.8 3.4s-11.8-1.8-15.3-5.3c-3.5-3.6-5.2-8.6-5.2-15.1s.8-8.4 2.4-11.6c1.6-3.3 3.9-5.8 6.8-7.5s6.3-2.6 10.1-2.6 7.3.9 9.9 2.8a16 16 0 0 1 5.9 7.4c1.3 3.1 1.9 6.5 1.9 10.3v2.4Zm-10.4-6.6c-.2-2.9-.9-5.1-2.2-6.5-1.3-1.5-3.1-2.2-5.3-2.2s-3.9.7-5.3 2.2a12 12 0 0 0-2.8 6.6h15.5Zm19-5.4c0-2.2 0-5.6-.3-10.1h10.2l.4 4 .3 3.8c1.1-1.8 2.1-3.3 3.2-4.5 1-1.2 2.2-2.2 3.6-3 1.4-.8 2.9-1.1 4.7-1.1s2.6.2 3.7.5l-1.3 9.2c-.9-.2-1.9-.4-3-.4-2.1 0-4 .5-5.6 1.5-1.6 1-3.3 2.7-5 5.1v25.4H1065v-30.4Zm59.6-13.8a6.3 6.3 0 0 1-2.2-2.1c-.5-.9-.8-1.9-.8-3.1a5.8 5.8 0 0 1 6.1-6c1.8 0 2.2.3 3.1.8.9.5 1.7 1.2 2.2 2.1a6.2 6.2 0 0 1 0 6.1c-.5.9-1.3 1.6-2.2 2.1a6.5 6.5 0 0 1-6.3 0Zm-2.3 3.7h10.8v40.5h-10.8V198Zm22.3 10.3c0-3.8 0-7.2-.3-10.3h10.2l.4 3.1.3 3.2c1.3-1.4 2.5-2.6 3.7-3.6a14.5 14.5 0 0 1 9.9-3.5c2.1 0 4.9.6 6.8 1.7s3.4 2.9 4.4 5.2 1.5 5.1 1.5 8.4v26h-10.7v-25.2c0-2.6-.5-4.5-1.5-5.8s-2.4-1.9-4.4-1.9-3.5.4-5 1.4c-1.5.9-3.1 2.1-4.6 3.7v27.8h-10.8v-30.3Zm73.9-24h10.9v54.3h-10.9v-54.3Zm23.3 24c0-3.8 0-7.2-.3-10.3h10.2l.4 3.1.3 3.2c1.3-1.4 2.5-2.6 3.7-3.6a14.5 14.5 0 0 1 9.9-3.5c2.1 0 4.9.6 6.8 1.7s3.4 2.9 4.4 5.2 1.5 5.1 1.5 8.4v26h-10.7v-25.2c0-2.6-.5-4.5-1.5-5.8s-2.4-1.9-4.4-1.9-3.5.4-5 1.4c-1.5.9-3.1 2.1-4.6 3.7v27.8h-10.8v-30.3Zm72.9 30.3-.8-5.1c-1.6 1.9-3.4 3.3-5.3 4.4s-4.2 1.5-6.8 1.5-5.4-.7-7.7-2a14 14 0 0 1-5.5-6.4c-1.4-2.9-2.1-6.6-2.1-11.1s.8-8.7 2.3-12.1c1.6-3.4 3.8-6 6.8-7.8s6.6-2.7 10.9-2.7 4.7.4 7.3 1.1v-14.5l10.7-.8v45.4c0 3.3.1 6.7.3 10h-10.2Zm-4.6-9a12 12 0 0 0 3.8-3.1v-20.3c-2.2-.8-4.4-1.2-6.6-1.2s-5.4 1.2-7.2 3.7c-1.8 2.5-2.6 6.1-2.6 11s.7 6.8 2.1 8.6c1.4 1.8 3.1 2.7 5.3 2.7s3.6-.4 5.2-1.4Zm28.7 5.8a17.2 17.2 0 0 1-3.4-11.4v-26.1h10.6v25.3c0 2.6.5 4.5 1.5 5.7s2.4 1.8 4.4 1.8 3.5-.5 5.1-1.4c1.6-.9 3.1-2.1 4.6-3.6v-27.9h10.7v30.4l.3 10.2h-10.1l-.5-3.1a20 20 0 0 1-.3-3.1 29.3 29.3 0 0 1-3.6 3.5c-1.2 1-2.6 1.8-4.2 2.5s-3.5 1-5.6 1a12 12 0 0 1-9.5-3.9Zm47 3.1c-2.3-.5-4.2-1.2-5.6-1.9l2.3-7c1.3.6 3 1.2 5 1.6s3.8.7 5.7.7 4-.4 5.1-1.2 1.7-1.9 1.7-3.3-.3-1.7-.8-2.3a6.7 6.7 0 0 0-2.4-1.7l-4.8-2c-2.3-.9-4.2-1.8-5.8-2.7s-2.8-2.2-3.9-3.8c-1-1.6-1.5-3.5-1.5-5.8s.6-4.5 1.7-6.3c1.2-1.8 2.8-3.1 5-4.1 2.2-1 4.9-1.4 8-1.4s4.5.2 6.8.8c2.2.5 4.3 1.2 6.1 2.1l-1.8 6.9a27.9 27.9 0 0 0-10.7-2.5c-1.4 0-2.9.3-3.8.9-.9.6-1.3 1.4-1.3 2.5s.2 1.4.7 1.9 1.2 1 2.2 1.5l4.8 2c2.5 1 4.5 1.9 6 2.9 1.5.9 2.8 2.2 3.8 3.8 1 1.6 1.6 3.7 1.6 6.3s-.6 5-1.8 7c-1.2 2-3.1 3.5-5.6 4.6-2.5 1.1-5.6 1.6-9.2 1.6s-5.2-.3-7.5-.8Zm38-2.5c-2.2-2.2-3.4-6-3.4-11.3v-18.9h-5.9l1.2-6.9 4.9-.9.5-10 9.9-1v11h12.1l-1.2 7.8h-10.9v17.7c0 1.9.2 3.5.6 4.6a4.7 4.7 0 0 0 1.9 2.4c.8.5 2 .7 3.3.7s3.8-.4 5.9-1.2l1.4 7a28.1 28.1 0 0 1-10.7 2.2c-4.2 0-7.4-1.1-9.7-3.4Zm27.6-27.9c0-2.2 0-5.6-.3-10.1h10.2l.4 4 .3 3.8c1.1-1.8 2.1-3.3 3.2-4.5 1-1.2 2.2-2.2 3.6-3 1.4-.8 2.9-1.1 4.7-1.1s2.6.2 3.7.5l-1.3 9.2c-.9-.2-1.9-.4-3-.4-2.1 0-4 .5-5.6 1.5-1.6 1-3.3 2.7-5 5.1v25.4h-10.8v-30.4Zm34.9-13.8a6.3 6.3 0 0 1-2.2-2.1c-.5-.9-.8-1.9-.8-3.1a5.8 5.8 0 0 1 6.1-6c1.8 0 2.2.3 3.1.8.9.5 1.7 1.2 2.2 2.1a6.2 6.2 0 0 1 0 6.1c-.5.9-1.3 1.6-2.2 2.1a6.5 6.5 0 0 1-6.3 0Zm-2.3 3.7h10.8v40.5h-10.8V198Zm56.6 22.1h-26.1c.3 3.9 1.4 6.7 3.4 8.5 1.9 1.8 4.6 2.6 8 2.6s3.8-.2 5.9-.7 3.9-1.1 5.8-1.8l2.3 7.3c-4.7 2.2-10 3.4-15.8 3.4s-11.8-1.8-15.3-5.3c-3.5-3.6-5.2-8.6-5.2-15.1s.8-8.4 2.4-11.6c1.6-3.3 3.9-5.8 6.8-7.5s6.3-2.6 10.1-2.6 7.3.9 9.9 2.8a16 16 0 0 1 5.9 7.4c1.3 3.1 1.9 6.5 1.9 10.3v2.4Zm-10.4-6.6c-.2-2.9-.9-5.1-2.2-6.5-1.3-1.5-3.1-2.2-5.3-2.2s-3.9.7-5.3 2.2a12 12 0 0 0-2.8 6.6h15.5Zm21.1 25c-2.3-.5-4.2-1.2-5.6-1.9l2.3-7c1.3.6 3 1.2 5 1.6s3.8.7 5.7.7 4-.4 5.1-1.2 1.7-1.9 1.7-3.3-.3-1.7-.8-2.3a6.7 6.7 0 0 0-2.4-1.7l-4.8-2c-2.3-.9-4.2-1.8-5.8-2.7s-2.8-2.2-3.9-3.8c-1-1.6-1.5-3.5-1.5-5.8s.6-4.5 1.7-6.3c1.2-1.8 2.8-3.1 5-4.1 2.2-1 4.9-1.4 8-1.4s4.5.2 6.8.8c2.2.5 4.3 1.2 6.1 2.1l-1.8 6.9a27.9 27.9 0 0 0-10.7-2.5c-1.4 0-2.9.3-3.8.9-.9.6-1.3 1.4-1.3 2.5s.2 1.4.7 1.9 1.2 1 2.2 1.5l4.8 2c2.5 1 4.5 1.9 6 2.9 1.5.9 2.8 2.2 3.8 3.8 1 1.6 1.6 3.7 1.6 6.3s-.6 5-1.8 7c-1.2 2-3.1 3.5-5.6 4.6-2.5 1.1-5.6 1.6-9.2 1.6s-5.2-.3-7.5-.8ZM546.9 42.7h18.8v37.5h41.9V42.7h18.8v93.6h-18.8V95.2h-41.9v41.1h-18.8V42.7Zm119.4 90.9a30.2 30.2 0 0 1-13.6-11.8 33.7 33.7 0 0 1-4.8-18.3V42.7h18.6v58.2c0 6.9 1.7 12.2 5.2 15.9s8.5 5.5 15.3 5.5c13.4 0 20-7.2 20-21.7V42.8h18.7v60.7A35 35 0 0 1 721 122a29.7 29.7 0 0 1-13.4 11.8c-5.8 2.7-12.7 4-20.7 4s-14.9-1.4-20.8-4.1Zm132.1-21.1h-35.8l-8.5 23.7h-18.9l36.3-93.7H790l37.1 93.7H807l-8.6-23.7Zm-30.6-14.4h25.4l-9-24.8a115 115 0 0 1-3.8-12c-1 3.8-2.3 7.8-3.7 11.9L767.8 98Zm57.9-55.4h19.9l15 56.4a129 129 0 0 1 3.3 15.5 273 273 0 0 1 4-15.8l16-56.1h19.6l16.9 56.5c1.8 6.2 3.1 11.4 3.7 15.4.8-4.1 1.9-9.1 3.5-14.7l14.5-57.1h18.8l-27.7 93.6h-19.5l-15.8-53a134.3 134.3 0 0 1-4.7-19.7 221.1 221.1 0 0 1-4.7 19.4l-15.4 53.3h-19.3l-28.2-93.6Zm151.9 0h56.3l-1.6 15.2h-35.9v23.2h33.8v14.2h-33.8V121h37.9l-1.4 15.3h-55.4V42.7Zm75.6 0h18.8v93.6h-18.8V42.7Zm100.8 89.4c-7.1-3.6-12.5-9-16.3-16-3.8-7-5.7-15.5-5.7-25.4s2-19.1 5.9-26.5c4-7.4 9.5-13.1 16.6-17s15.2-5.8 24.4-5.8 10 .6 14.6 1.7c4.7 1.2 8.9 2.8 12.8 4.8l-4.3 13.9c-7.6-3.9-15-5.9-22.2-5.9a25.7 25.7 0 0 0-25.2 15.9c-2.2 5.1-3.3 11.1-3.3 18s1 12.2 3.1 17.2 5.3 8.8 9.7 11.7c4.4 2.8 10 4.2 16.8 4.2s14.8-1.8 22.7-5.3l4 13.6a58 58 0 0 1-28.5 6.2 54 54 0 0 1-25.3-5.5Zm69.3-89.4h18.8v77.8h37.5l-1.4 15.8h-54.9V42.7Zm82.8 89c-7-3.9-12.3-9.4-15.9-16.5s-5.5-15.3-5.5-24.7 2-18.5 5.9-25.9 9.6-13.1 16.9-17.1c7.3-4 16-6 26.1-6s17.9 2 24.8 5.8a38.7 38.7 0 0 1 15.8 16.5c3.6 7.1 5.5 15.3 5.5 24.6s-2 18.7-5.9 26.1-9.6 13.2-17 17.2c-7.3 4-15.9 6-25.8 6s-17.8-2-24.8-5.9Zm41.3-13c4.2-2.9 7.4-6.9 9.5-11.9s3.2-10.8 3.2-17.3-.9-12.1-2.8-17.1-4.8-9-8.9-12c-4.1-3-9.3-4.5-15.7-4.5a26 26 0 0 0-25.2 16.6 48.4 48.4 0 0 0-.2 34c2 5.1 5.1 9.1 9.2 12.1 4.1 2.9 9.2 4.4 15.3 4.4s11.3-1.4 15.5-4.3Zm66.4 14.9a30.2 30.2 0 0 1-13.6-11.8 33.7 33.7 0 0 1-4.8-18.3V42.7h18.6v58.2c0 6.9 1.7 12.2 5.2 15.9 3.4 3.6 8.6 5.5 15.3 5.5 13.4 0 20-7.2 20-21.7V42.8h18.7v60.7a35 35 0 0 1-4.7 18.5 29.7 29.7 0 0 1-13.4 11.8c-5.8 2.7-12.7 4-20.7 4s-14.9-1.4-20.8-4.1Zm81.1-90.9h32.4c10.1 0 18.7 1.7 25.9 5s12.7 8.2 16.5 14.8c3.8 6.5 5.7 14.5 5.7 23.9s-2 18.2-6 25.8-9.7 13.5-17.2 17.8a52.1 52.1 0 0 1-26.4 6.4H1495V42.7Zm29.8 79c6.8 0 12.5-1.5 17.2-4.5 4.7-3 8.2-7.1 10.5-12.3a44.1 44.1 0 0 0 3.5-18c0-9.8-2.5-17.2-7.5-22.2s-12.5-7.5-22.4-7.5h-12.3v64.5h11Z" class="cls-1"/><metadata id="metadata37"><rdf:RDF><cc:Work rdf:about=""><dc:contributor><cc:Agent><dc:title>Gabriel Gutierrez Pereira Soares 00817435</dc:title></cc:Agent></dc:contributor></cc:Work></rdf:RDF></metadata></svg>